<svg xmlns="http://www.w3.org/2000/svg" width="14" height="16" viewBox="0 0 14 16"><defs><style>.a{fill:#878787;}</style></defs><rect class="a" width="2" height="2" rx="0.375" transform="translate(9 10)"/><rect class="a" width="2" height="2" rx="0.375" transform="translate(6 7)"/><rect class="a" width="2" height="2" rx="0.375" transform="translate(9 7)"/><rect class="a" width="2" height="2" rx="0.375" transform="translate(6 10)"/><rect class="a" width="2" height="2" rx="0.375" transform="translate(3 10)"/><path class="a" d="M13.5,2H12V.375A.376.376,0,0,0,11.625,0h-1.25A.376.376,0,0,0,10,.375V2H6V.375A.376.376,0,0,0,5.625,0H4.375A.376.376,0,0,0,4,.375V2H2.5A1.5,1.5,0,0,0,1,3.5v11A1.5,1.5,0,0,0,2.5,16h11A1.5,1.5,0,0,0,15,14.5V3.5A1.5,1.5,0,0,0,13.5,2Zm0,12.313h0a.189.189,0,0,1-.187.189H2.687a.188.188,0,0,1-.187-.188V5h11Z" transform="translate(-1)"/><rect class="a" width="2" height="2" rx="0.375" transform="translate(3 7)"/></svg>