<svg width="83" height="22" viewBox="0 0 83 22" fill="none" xmlns="http://www.w3.org/2000/svg">
<path d="M20.4239 8.42401V12.264H18.5999V21.552H14.2799V0.744007H18.5999V8.42401H20.4239ZM9.07195 0.984006V10.128C9.07195 10.88 9.11195 11.552 9.19195 12.144C9.27195 12.736 9.46395 13.28 9.76795 13.776C10.0719 14.256 10.5119 14.712 11.0879 15.144C11.6799 15.56 12.4799 15.984 13.4879 16.416L12.3599 20.328C11.1599 20.008 10.0879 19.592 9.14395 19.08C8.19995 18.568 7.43195 18.048 6.83995 17.52C6.23195 18.128 5.45595 18.712 4.51195 19.272C3.58395 19.832 2.39195 20.344 0.935945 20.808L-5.46575e-05 16.656C1.03995 16.192 1.86395 15.736 2.47195 15.288C3.07995 14.84 3.53595 14.368 3.83995 13.872C4.15995 13.376 4.36795 12.84 4.46395 12.264C4.55995 11.688 4.60795 11.056 4.60795 10.368V0.984006H9.07195ZM23.0428 6.19888e-06C23.5068 0.272007 24.0668 0.488007 24.7228 0.648006C25.3948 0.792006 26.1388 0.864007 26.9548 0.864007H30.5308V4.53601H26.1628C25.2508 4.53601 24.4348 4.46401 23.7148 4.32001C23.0108 4.16001 22.4268 3.93601 21.9628 3.64801L23.0428 6.19888e-06ZM35.6668 13.248V21.432H31.8268V0.864007H35.6668V9.40801H36.7228V0.744007H40.5628V21.552H36.7228V13.248H35.6668ZM31.0828 9.14401H28.3228V12.144C28.3228 12.832 28.3708 13.408 28.4668 13.872C28.5788 14.336 28.7468 14.744 28.9708 15.096C29.2108 15.448 29.5228 15.768 29.9068 16.056C30.2908 16.344 30.7708 16.656 31.3468 16.992L30.2188 20.568C29.8348 20.456 29.4508 20.312 29.0668 20.136C28.6828 19.944 28.3148 19.752 27.9628 19.56C27.6108 19.352 27.2828 19.136 26.9788 18.912C26.6908 18.688 26.4428 18.472 26.2348 18.264C25.8348 18.728 25.2348 19.232 24.4348 19.776C23.6348 20.304 22.7308 20.728 21.7228 21.048L20.7868 17.232C21.4108 16.864 21.9388 16.528 22.3708 16.224C22.8028 15.904 23.1548 15.56 23.4268 15.192C23.6988 14.824 23.8908 14.4 24.0028 13.92C24.1308 13.424 24.1948 12.832 24.1948 12.144V9.14401H21.2908V5.42401H31.0828V9.14401ZM56.4296 12.768V21.432H52.4696V0.864007H56.4296V8.92801H57.4856V0.744007H61.4456V21.552H57.4856V12.768H56.4296ZM42.0536 1.22401H51.5816V5.18401H50.7176V16.032H51.5816V19.992H42.0536V16.032H42.8936V5.18401H42.0536V1.22401ZM46.3736 5.18401V16.032H47.2376V5.18401H46.3736ZM65.0484 6.19888e-06C65.3044 0.144006 65.6084 0.272006 65.9604 0.384006C66.3284 0.480006 66.7124 0.568007 67.1124 0.648006C67.5124 0.712007 67.9124 0.768006 68.3124 0.816006C68.7284 0.848006 69.1044 0.864007 69.4404 0.864007H74.9844V4.46401H68.5284C67.5844 4.46401 66.7044 4.39201 65.8884 4.24801C65.0724 4.10401 64.3924 3.88001 63.8484 3.57601L65.0484 6.19888e-06ZM82.0884 0.744007V21.552H77.7684V0.744007H82.0884ZM75.6564 9.14401H71.7204V11.904C71.7204 12.544 71.7844 13.096 71.9124 13.56C72.0404 14.024 72.2644 14.432 72.5844 14.784C72.9204 15.136 73.3684 15.464 73.9284 15.768C74.5044 16.056 75.2404 16.36 76.1364 16.68L75.0804 20.328C74.5204 20.2 73.9604 20.048 73.4004 19.872C72.8564 19.68 72.3364 19.472 71.8404 19.248C71.3604 19.008 70.9204 18.768 70.5204 18.528C70.1204 18.272 69.7764 18.024 69.4884 17.784C69.0244 18.248 68.2724 18.768 67.2324 19.344C66.2084 19.904 64.9684 20.392 63.5124 20.808L62.6484 16.92C63.6244 16.52 64.4084 16.152 65.0004 15.816C65.6084 15.464 66.0804 15.104 66.4164 14.736C66.7524 14.352 66.9764 13.936 67.0884 13.488C67.2004 13.04 67.2564 12.512 67.2564 11.904V9.14401H63.1764V5.42401H75.6564V9.14401Z" fill="#737984"/>
</svg>
