<svg width="21" height="20" viewBox="0 0 21 20" fill="none" xmlns="http://www.w3.org/2000/svg">
<path fill-rule="evenodd" clip-rule="evenodd" d="M10.7301 16.9851C10.4388 16.832 10.0908 16.832 9.79943 16.9851L5.00482 19.5058C4.27119 19.8915 3.41376 19.2685 3.55387 18.4516L4.46956 13.1127C4.5252 12.7884 4.41765 12.4574 4.18196 12.2276L0.303043 8.4466C-0.290474 7.86807 0.037035 6.86009 0.857255 6.74091L6.21779 5.96198C6.5435 5.91465 6.82507 5.71008 6.97073 5.41493L9.36803 0.557466C9.73485 -0.18578 10.7947 -0.185781 11.1615 0.557464L13.5588 5.41493C13.7045 5.71008 13.986 5.91465 14.3117 5.96198L19.6723 6.74091C20.4925 6.86009 20.82 7.86806 20.2265 8.4466L16.3476 12.2276C16.1119 12.4574 16.0043 12.7884 16.06 13.1127L16.9757 18.4516C17.1158 19.2685 16.2583 19.8915 15.5247 19.5058L10.7301 16.9851Z" fill="#FFC747"/>
</svg>
