<?xml version="1.0" encoding="UTF-8"?>
<svg version="1.1" xmlns="http://www.w3.org/2000/svg" width="292" height="72">
<path d="M0 0 C3.35286458 0.03255208 6.70572917 0.06510417 10.05859375 0.09765625 C8.73859375 8.34765625 7.41859375 16.59765625 6.05859375 25.09765625 C7.04859375 25.09765625 8.03859375 25.09765625 9.05859375 25.09765625 C11.03859375 12.72265625 11.03859375 12.72265625 13.05859375 0.09765625 C17.67859375 0.09765625 22.29859375 0.09765625 27.05859375 0.09765625 C25.5146401 9.19056068 23.9680001 18.28299683 22.41658878 27.37463188 C21.69636153 31.5959857 20.97732662 35.81753548 20.26098633 40.03955078 C19.56999504 44.11189936 18.87591139 48.18370969 18.17965508 52.25516129 C17.91420076 53.81074271 17.64987262 55.36651673 17.38667488 56.92248154 C17.0186319 59.09711218 16.64663721 61.27103153 16.27368164 63.44482422 C16.06272354 64.68392548 15.85176544 65.92302673 15.63441467 67.19967651 C15.05859375 70.09765625 15.05859375 70.09765625 14.05859375 72.09765625 C9.76859375 72.09765625 5.47859375 72.09765625 1.05859375 72.09765625 C1.69428204 64.84021494 2.72688053 57.75802731 4.05859375 50.59765625 C4.23648438 49.61023437 4.414375 48.6228125 4.59765625 47.60546875 C5.92777665 40.35929045 5.92777665 40.35929045 7.05859375 38.09765625 C5.73859375 38.09765625 4.41859375 38.09765625 3.05859375 38.09765625 C2.93484375 39.33644531 2.81109375 40.57523438 2.68359375 41.8515625 C2.04168029 47.62087273 1.06274536 53.31949618 0.05859375 59.03515625 C-0.11929688 60.07478516 -0.2971875 61.11441406 -0.48046875 62.18554688 C-0.65320313 63.17619141 -0.8259375 64.16683594 -1.00390625 65.1875 C-1.23787109 66.53122681 -1.23787109 66.53122681 -1.4765625 67.90209961 C-1.94140625 70.09765625 -1.94140625 70.09765625 -2.94140625 72.09765625 C-7.23140625 72.09765625 -11.52140625 72.09765625 -15.94140625 72.09765625 C-15.61140625 69.45765625 -15.28140625 66.81765625 -14.94140625 64.09765625 C-15.93140625 64.42765625 -16.92140625 64.75765625 -17.94140625 65.09765625 C-20.4550868 65.18233795 -22.94009999 65.2136751 -25.453125 65.1953125 C-26.18134964 65.19389755 -26.90957428 65.1924826 -27.65986633 65.19102478 C-29.98292164 65.18543284 -32.30588013 65.17288187 -34.62890625 65.16015625 C-36.20507673 65.15514021 -37.78124873 65.15057748 -39.35742188 65.14648438 C-43.21878723 65.13546605 -47.08008033 65.11820699 -50.94140625 65.09765625 C-50.80055829 63.30559078 -50.65356924 61.51400708 -50.50390625 59.72265625 C-50.42269531 58.72492187 -50.34148437 57.7271875 -50.2578125 56.69921875 C-49.94140625 54.09765625 -49.94140625 54.09765625 -48.94140625 52.09765625 C-47.45640625 51.60265625 -47.45640625 51.60265625 -45.94140625 51.09765625 C-45.76488525 50.07816895 -45.58836426 49.05868164 -45.40649414 48.00830078 C-44.75179019 44.2320282 -44.09295636 40.45648597 -43.43286133 36.68115234 C-43.1475504 35.04593265 -42.86336534 33.41051611 -42.58032227 31.77490234 C-42.17368481 29.42623278 -41.76302604 27.078297 -41.3515625 24.73046875 C-41.16244041 23.63038986 -41.16244041 23.63038986 -40.96949768 22.50808716 C-40.05527796 17.32539966 -40.05527796 17.32539966 -38.94140625 15.09765625 C-39.93140625 15.09765625 -40.92140625 15.09765625 -41.94140625 15.09765625 C-41.80107514 13.11809184 -41.65399395 11.13900484 -41.50390625 9.16015625 C-41.42269531 8.05800781 -41.34148437 6.95585937 -41.2578125 5.8203125 C-40.94140625 3.09765625 -40.94140625 3.09765625 -39.94140625 2.09765625 C-37.49310199 2.00921832 -35.07320026 1.98236873 -32.625 2 C-31.89394547 2.00141495 -31.16289093 2.0028299 -30.40968323 2.00428772 C-28.06604993 2.00990217 -25.72251086 2.02245703 -23.37890625 2.03515625 C-21.79362117 2.04016939 -20.20833459 2.04473262 -18.62304688 2.04882812 C-14.72913015 2.05987628 -10.8352842 2.07715053 -6.94140625 2.09765625 C-7.27140625 6.05765625 -7.60140625 10.01765625 -7.94140625 14.09765625 C-9.26140625 14.42765625 -10.58140625 14.75765625 -11.94140625 15.09765625 C-11.99039063 15.7525 -12.039375 16.40734375 -12.08984375 17.08203125 C-12.67039767 24.16879292 -13.68592805 31.10154945 -14.94140625 38.09765625 C-15.11929688 39.11988281 -15.2971875 40.14210937 -15.48046875 41.1953125 C-16.8015253 48.67801339 -16.8015253 48.67801339 -17.94140625 52.09765625 C-15.43972836 51.44433635 -15.43972836 51.44433635 -12.94140625 50.09765625 C-11.88843294 47.9770564 -11.88843294 47.9770564 -11.56347656 45.38842773 C-11.38689514 44.41078964 -11.21031372 43.43315155 -11.02838135 42.42588806 C-10.86046082 41.3675325 -10.69254028 40.30917694 -10.51953125 39.21875 C-10.32921326 38.13634537 -10.13889526 37.05394073 -9.94281006 35.93873596 C-9.337839 32.4741416 -8.76380068 29.00526748 -8.19140625 25.53515625 C-7.59842283 22.0628237 -6.99925385 18.59162771 -6.39715576 15.12086487 C-6.02427364 12.95854926 -5.65795913 10.79508947 -5.29864502 8.63047791 C-5.05268585 7.16874901 -5.05268585 7.16874901 -4.80175781 5.67749023 C-4.65917542 4.81526352 -4.51659302 3.9530368 -4.36968994 3.06468201 C-3.68103801 -0.09816567 -3.36604974 0.11175464 0 0 Z M-26.94140625 15.09765625 C-30.0823754 27.28080931 -31.9549697 39.68584227 -33.94140625 52.09765625 C-32.62140625 52.09765625 -31.30140625 52.09765625 -29.94140625 52.09765625 C-28.22162268 45.60586062 -26.96427344 39.08777233 -25.81640625 32.47265625 C-25.63464844 31.46203125 -25.45289063 30.45140625 -25.265625 29.41015625 C-24.42420509 24.58938952 -23.68974574 20.01342493 -23.94140625 15.09765625 C-24.93140625 15.09765625 -25.92140625 15.09765625 -26.94140625 15.09765625 Z " fill="#034AD8" transform="translate(196.94140625,-0.09765625)"/>
<path d="M0 0 C4.29 0 8.58 0 13 0 C12.42198589 8.55460878 10.93769165 16.65208316 9 25 C10.32 24.67 11.64 24.34 13 24 C13.11593506 23.34402832 13.23187012 22.68805664 13.35131836 22.01220703 C13.87683919 19.04922551 14.40710918 16.08711346 14.9375 13.125 C15.11990234 12.09246094 15.30230469 11.05992188 15.49023438 9.99609375 C15.66748047 9.00996094 15.84472656 8.02382812 16.02734375 7.0078125 C16.18968506 6.09660645 16.35202637 5.18540039 16.51928711 4.24658203 C17 2 17 2 18 0 C22.29 0 26.58 0 31 0 C29.28946805 14.2446023 26.73540772 28.3303578 24.22705078 42.45300293 C23.63474122 45.79182977 23.04605621 49.13129556 22.45703125 52.47070312 C21.30796009 58.98105171 20.15504366 65.4907085 19 72 C14.38 72 9.76 72 5 72 C5.69224987 67.80052107 6.38549681 63.60123205 7.08129883 59.40234375 C7.31756498 57.97470674 7.55324813 56.54697311 7.78833008 55.11914062 C8.12687378 53.06354333 8.4675318 51.00830578 8.80859375 48.953125 C9.01282959 47.71723633 9.21706543 46.48134766 9.42749023 45.20800781 C9.86370666 42.76370764 10.3493971 40.39338254 11 38 C9.02 38.495 9.02 38.495 7 39 C5.02 49.89 3.04 60.78 1 72 C-3.29 72 -7.58 72 -12 72 C-11.36470818 63.75803807 -10.20379931 55.73217686 -8.75 47.59765625 C-8.53182617 46.35753281 -8.31365234 45.11740936 -8.08886719 43.83970642 C-7.51388489 40.57747618 -6.93485977 37.31599792 -6.35400391 34.05480957 C-5.88023684 31.38848118 -5.41096288 28.72137072 -4.9418335 26.05422306 C-4.37974357 22.86003932 -3.814913 19.66634175 -3.25 16.47265625 C-3.03956055 15.28100357 -2.82912109 14.08935089 -2.61230469 12.86158752 C-2.41540039 11.7562114 -2.21849609 10.65083527 -2.015625 9.51196289 C-1.84321289 8.54142471 -1.67080078 7.57088654 -1.49316406 6.57093811 C-1.07001616 4.36500472 -0.54477174 2.17908697 0 0 Z " fill="#101010" transform="translate(121,0)"/>
<path d="M0 0 C7.59 0 15.18 0 23 0 C23.91444447 20.6893061 24.11800338 41.29494488 24 62 C22.2508503 62.33776684 20.50063855 62.67003671 18.75 63 C17.77546875 63.185625 16.8009375 63.37125 15.796875 63.5625 C13 64 13 64 9 64 C9 47.83 9 31.66 9 15 C3.39 31.17 -2.22 47.34 -8 64 C-18.125 62.875 -18.125 62.875 -22 62 C-21.37249883 57.2411817 -20.03664172 52.9617165 -18.33984375 48.49609375 C-17.94107025 47.4272847 -17.94107025 47.4272847 -17.53424072 46.33688354 C-16.6738991 44.03508687 -15.8058563 41.73628368 -14.9375 39.4375 C-14.34568873 37.859126 -13.75430027 36.2805934 -13.16333008 34.7019043 C-11.45025541 30.13155571 -9.72701883 25.56509526 -8 21 C-7.53916016 19.78151367 -7.07832031 18.56302734 -6.60351562 17.30761719 C-4.41594458 11.53304778 -2.21092596 5.76574809 0 0 Z " fill="#101010" transform="translate(22,2)"/>
<path d="M0 0 C14.85 0 29.7 0 45 0 C44.34 4.29 43.68 8.58 43 13 C40.03 13 37.06 13 34 13 C34.09087891 13.80107178 34.18175781 14.60214355 34.27539062 15.42749023 C34.68872985 19.09693571 35.09442059 22.76718907 35.5 26.4375 C35.64308594 27.69755859 35.78617187 28.95761719 35.93359375 30.25585938 C36.66029548 36.88268709 37.17409324 43.33367958 37 50 C35.25183142 50.50636607 33.50137737 51.00484619 31.75 51.5 C30.77546875 51.7784375 29.8009375 52.056875 28.796875 52.34375 C26 53 26 53 22 53 C21.94465088 52.14768799 21.88930176 51.29537598 21.83227539 50.41723633 C21.62432024 47.23948258 21.41337713 44.06194495 21.20043945 40.88452148 C21.109081 39.5122043 21.0188959 38.13980846 20.92993164 36.76733398 C20.80146718 34.78869421 20.66836027 32.8103576 20.53515625 30.83203125 C20.456604 29.64327393 20.37805176 28.4545166 20.29711914 27.22973633 C20.02816114 23.68380187 20.02816114 23.68380187 19 19 C14.38 30.22 9.76 41.44 5 53 C-0.11264676 52.26962189 -4.18613272 51.47363284 -9 50 C-6.54933568 42.02889185 -3.24006872 34.52991078 0.1875 26.9375 C0.75234508 25.67791007 1.31680111 24.4181456 1.88085938 23.15820312 C3.25010318 20.10373617 4.62323397 17.05108191 6 14 C3.36 13.67 0.72 13.34 -2 13 C-1.85851011 11.3954444 -1.71164314 9.79136233 -1.5625 8.1875 C-1.48128906 7.29417969 -1.40007812 6.40085937 -1.31640625 5.48046875 C-1 3 -1 3 0 0 Z " fill="#034AD8" transform="translate(225,14)"/>
<path d="M0 0 C11.22 0 22.44 0 34 0 C33 10 33 10 32 13 C30.02 13 28.04 13 26 13 C26 25.21 26 37.42 26 50 C19.565 50.495 19.565 50.495 13 51 C13 42.09 13 33.18 13 24 C10.03 32.91 7.06 41.82 4 51 C-0.29 50.67 -4.58 50.34 -9 50 C-6.87039381 41.75036049 -4.24911662 33.80740362 -1.3125 25.8125 C-0.68891602 24.09836914 -0.68891602 24.09836914 -0.05273438 22.34960938 C0.96092821 19.56495009 1.97856024 16.78181383 3 14 C1.35 13.67 -0.3 13.34 -2 13 C-1.34 8.71 -0.68 4.42 0 0 Z " fill="#101010" transform="translate(82,15)"/>
<path d="M0 0 C4.62 0 9.24 0 14 0 C13.34586714 8.50372724 11.76535102 16.67287257 10 25 C12.31 25 14.62 25 17 25 C16.85966889 26.97956441 16.7125877 28.95865141 16.5625 30.9375 C16.48128906 32.03964844 16.40007812 33.14179687 16.31640625 34.27734375 C16 37 16 37 15 38 C11.535 38.495 11.535 38.495 8 39 C6.02 49.89 4.04 60.78 2 72 C-2.95 72 -7.9 72 -13 72 C-10.09152613 54.36350951 -7.16568895 36.73016725 -4.08111572 19.12347412 C-3.81893741 17.6258176 -3.55782698 16.12797374 -3.29779053 14.62994385 C-2.93484077 12.5417741 -2.56770559 10.4543863 -2.19921875 8.3671875 C-1.99127686 7.18237793 -1.78333496 5.99756836 -1.5690918 4.77685547 C-1 2 -1 2 0 0 Z " fill="#101010" transform="translate(61,0)"/>
<path d="M0 0 C4.62 0 9.24 0 14 0 C13.39788462 8.63536529 12.2748196 17.01791938 10.75 25.53515625 C10.42273926 27.3967765 10.42273926 27.3967765 10.08886719 29.29600525 C9.5145277 32.55543578 8.93532825 35.81395329 8.35400391 39.07214355 C7.8793838 41.74065419 7.41054725 44.41016711 6.9418335 47.0797205 C6.38057153 50.27367399 5.81527365 53.46691068 5.25 56.66015625 C5.03956055 57.85383316 4.82912109 59.04751007 4.61230469 60.27735901 C4.41540039 61.37958298 4.21849609 62.48180695 4.015625 63.61743164 C3.84321289 64.58717422 3.67080078 65.55691681 3.49316406 66.55604553 C3 69 3 69 2 72 C-2.62 72 -7.24 72 -12 72 C-11.39788462 63.36463471 -10.2748196 54.98208062 -8.75 46.46484375 C-8.53182617 45.22376358 -8.31365234 43.98268341 -8.08886719 42.70399475 C-7.5145277 39.44456422 -6.93532825 36.18604671 -6.35400391 32.92785645 C-5.8793838 30.25934581 -5.41054725 27.58983289 -4.9418335 24.9202795 C-4.38057153 21.72632601 -3.81527365 18.53308932 -3.25 15.33984375 C-3.03956055 14.14616684 -2.82912109 12.95248993 -2.61230469 11.72264099 C-2.41540039 10.62041702 -2.21849609 9.51819305 -2.015625 8.38256836 C-1.84321289 7.41282578 -1.67080078 6.44308319 -1.49316406 5.44395447 C-1 3 -1 3 0 0 Z " fill="#034AD8" transform="translate(278,0)"/>
<path d="M0 0 C12.54 0 25.08 0 38 0 C37.34 3.96 36.68 7.92 36 12 C23.46 12 10.92 12 -2 12 C-1.34 8.04 -0.68 4.08 0 0 Z " fill="#044AD8" transform="translate(231,0)"/>
<path d="M0 0 C9.57 0 19.14 0 29 0 C28.67 3.96 28.34 7.92 28 12 C18.1 12 8.2 12 -2 12 C-1.34 8.04 -0.68 4.08 0 0 Z " fill="#101010" transform="translate(87,0)"/>
</svg>
