<svg width="146" height="36" viewBox="0 0 146 36" fill="none" xmlns="http://www.w3.org/2000/svg">
<path fill-rule="evenodd" clip-rule="evenodd" d="M30.5875 0.302246L24.3177 36H31.0902L34.1164 18.7742H37.9546L39.0027 12.8054H35.1635L37.3611 0.302246H30.5875ZM11.4383 1.13306L0 31.5417L6.5541 32.789L15.8366 6.08229H16.0624L15.9631 32.789L22.955 31.5417L22.2006 1.13306H11.4383Z" fill="#111111"/>
<mask id="mask0_0_8370" style="mask-type:luminance" maskUnits="userSpaceOnUse" x="36" y="0" width="40" height="36">
<path fill-rule="evenodd" clip-rule="evenodd" d="M36.7963 0.00012207H75.7478V35.9999H36.7963V0.00012207Z" fill="white"/>
</mask>
<g mask="url(#mask0_0_8370)">
<path fill-rule="evenodd" clip-rule="evenodd" d="M66.3326 18.7742H63.6606L60.7012 35.6224H54.5672L60.7712 0.302237H66.9052L64.7087 12.8054H67.3807L69.5772 0.302237H75.7478L69.4779 36H63.3073L66.3326 18.7742ZM43.8906 0.00012207H58.0396L56.9915 5.96794H42.8425L43.8906 0.00012207ZM43.2553 13.9005H40.3199L41.3691 7.93273H57.7752L56.7271 13.9005H53.9046L53.9935 32.0337L47.8824 32.9778L48.1176 22.2118C48.151 20.096 48.3694 16.2807 48.5146 14.8079H48.3265C47.9545 16.2807 46.8333 20.096 46.1227 22.2118L42.576 32.9778L36.7963 32.0337L43.2553 13.9005Z" fill="#111111"/>
</g>
<mask id="mask1_0_8370" style="mask-type:luminance" maskUnits="userSpaceOnUse" x="73" y="0" width="39" height="36">
<path fill-rule="evenodd" clip-rule="evenodd" d="M73.0957 0.301392H111.584V35.9999H73.0957V0.301392Z" fill="white"/>
</mask>
<g mask="url(#mask1_0_8370)">
<path fill-rule="evenodd" clip-rule="evenodd" d="M83.7398 26.2161L87.0974 7.10107H84.7263L81.3688 26.2161H83.7398ZM102.169 18.7744H99.8733L96.9139 35.6215H90.7809L91.6033 30.9377C90.6806 31.693 89.4653 32.1839 87.7724 32.1839H73.0957L74.1438 26.2161H75.8753L79.2329 7.10107H77.5013L78.5505 1.13326H95.0329L93.9838 7.10107H92.5542L89.1967 26.2161C90.5573 26.1783 91.4633 25.9518 92.5992 25.272L96.9849 0.301392H103.118L100.922 12.8056H103.217L105.414 0.301392H111.584L105.314 36.0002H99.1439L102.169 18.7744Z" fill="#3F9A41"/>
</g>
<mask id="mask2_0_8370" style="mask-type:luminance" maskUnits="userSpaceOnUse" x="108" y="0" width="38" height="36">
<path fill-rule="evenodd" clip-rule="evenodd" d="M108.169 0H146V35.9996H108.169V0Z" fill="white"/>
</mask>
<g mask="url(#mask2_0_8370)">
<path fill-rule="evenodd" clip-rule="evenodd" d="M139.226 0.301748H146L139.729 35.9995H132.957L139.226 0.301748ZM115.836 -0.000366211H134.124L133.089 5.89297H114.801L115.836 -0.000366211ZM116.398 13.2969H111.618L112.667 7.32801H134.718L133.67 13.2969H129.155L130.903 31.6178L123.805 33.4693L122.702 14.4676H122.401L114.63 33.4316L108.169 31.6556L116.398 13.2969Z" fill="#3F9A41"/>
</g>
</svg>
