<svg width="20" height="20" viewBox="0 0 20 20" fill="none" xmlns="http://www.w3.org/2000/svg">
<circle cx="10" cy="10" r="10" fill="#3345ED"/>
<path fill-rule="evenodd" clip-rule="evenodd" d="M4.58325 7.26903C4.59774 6.51579 4.97626 5.99284 5.62932 5.64834C5.84525 5.53445 6.06941 5.43841 6.31928 5.41995C6.58253 5.40046 6.81468 5.46956 7.01735 5.64043C7.35645 5.92621 7.64346 6.26062 7.89156 6.62292C8.1194 6.9556 8.32841 7.30365 8.51576 7.66051C8.75897 8.12376 8.57174 8.53637 8.20254 8.8166C8.09862 8.8955 7.98898 8.96851 7.89367 9.05677C7.65361 9.27898 7.65063 9.55208 7.75753 9.83342C7.9222 10.2667 8.16631 10.6551 8.46968 11.0054C8.91552 11.5203 9.46466 11.8979 10.0813 12.1813C10.2713 12.2686 10.4757 12.3426 10.6739 12.2262C10.7819 12.1629 10.8727 12.0596 10.9504 11.9584C11.1118 11.7483 11.2886 11.5612 11.5397 11.4584C11.829 11.3399 12.115 11.372 12.3918 11.4935C12.5389 11.5581 12.6848 11.6337 12.8147 11.7272C13.2663 12.0526 13.712 12.3863 14.1567 12.7209C14.2327 12.7781 14.2983 12.8514 14.3599 12.9246C14.6494 13.2683 14.6334 13.6453 14.4489 14.0215C14.1092 14.714 13.5637 15.1696 12.814 15.3795C12.4833 15.472 12.177 15.3779 11.8821 15.2524C10.8723 14.8226 9.91915 14.2903 9.0341 13.642C8.0373 12.9119 7.16355 12.0567 6.42403 11.0676C5.71743 10.1226 5.15069 9.10036 4.72092 8.0034C4.62913 7.76904 4.58404 7.52301 4.58325 7.26903" fill="white"/>
<path fill-rule="evenodd" clip-rule="evenodd" d="M14.2917 8.59635C14.283 8.72044 14.2853 8.84639 14.2628 8.96814C14.2253 9.17234 14.0706 9.2825 13.8362 9.29119C13.61 9.29957 13.4491 9.20234 13.3983 9.00026C13.3591 8.84453 13.353 8.68131 13.3242 8.52281C13.2524 8.12826 13.1517 7.7424 12.9507 7.38649C12.6802 6.90737 12.2471 6.62195 11.7271 6.45719C11.4001 6.35361 11.0608 6.28404 10.7242 6.21161C10.359 6.13309 10.2137 5.90656 10.3321 5.57443C10.3984 5.38845 10.5682 5.27882 10.7977 5.2929C12.3787 5.39003 13.6617 6.31201 14.14 7.68629C14.2422 7.97986 14.2858 8.28535 14.2917 8.59635" fill="white"/>
<path fill-rule="evenodd" clip-rule="evenodd" d="M12.514 8.73114C12.5014 8.81338 12.4958 8.89734 12.4748 8.97749C12.4248 9.16914 12.2875 9.27897 12.096 9.29073C11.9035 9.30253 11.7413 9.20376 11.6729 9.01905C11.6405 8.9317 11.6247 8.83749 11.6105 8.74503C11.5453 8.32163 11.2834 8.04518 10.8557 7.95369C10.779 7.93728 10.7013 7.92485 10.6255 7.90526C10.4017 7.84746 10.2855 7.71487 10.292 7.52929C10.3 7.30281 10.4319 7.14033 10.6509 7.09463C10.851 7.0529 11.0521 7.06114 11.2416 7.13376C11.9309 7.39782 12.3694 7.87057 12.4973 8.59448C12.5015 8.61842 12.5024 8.64299 12.5035 8.66731C12.5045 8.68815 12.5037 8.70904 12.5037 8.72992C12.5071 8.73034 12.5106 8.73072 12.514 8.73114" fill="white"/>
</svg>
