<svg xmlns="http://www.w3.org/2000/svg" width="22" height="20" viewBox="0 0 22 20"><defs><style>.a{fill:#fff;stroke:#5e71b8;}.b{fill:#5e71b8;}.c{stroke:none;}.d{fill:none;}</style></defs><g class="a"><rect class="c" width="22" height="20"/><rect class="d" x="0.5" y="0.5" width="21" height="19"/></g><path class="b" d="M5.512,10.575a.761.761,0,0,1-.565-.253l-4-4.346A.814.814,0,0,1,.988,4.85a.759.759,0,0,1,1.094.037l3.407,3.7L9.653,4.355,11.384,2.6a.757.757,0,0,1,1.091-.082.814.814,0,0,1,.08,1.124L6.1,10.3a.768.768,0,0,1-.57.276Z" transform="translate(5.257 3.675)"/></svg>