<svg xmlns="http://www.w3.org/2000/svg" width="16" height="14.504" viewBox="0 0 16 14.504"><defs><style>.a{fill:#7b85a0;}</style></defs><path class="a" d="M331.621,537.532a3.392,3.392,0,1,1-3.392-3.392A3.392,3.392,0,0,1,331.621,537.532Z" transform="translate(-322.224 -534.14)"/><path class="a" d="M314.859,605.61v-1.642a5.143,5.143,0,0,0-5.143-5.143h-1.653a5.143,5.143,0,0,0-5.143,5.143v1.642Z" transform="translate(-302.92 -591.106)"/><g transform="translate(8.311 0)"><path class="a" d="M374.355,534.14a3.38,3.38,0,0,0-1.548.374,3.392,3.392,0,0,1,0,6.036,3.392,3.392,0,1,0,1.548-6.411Z" transform="translate(-372.807 -534.14)"/></g><path class="a" d="M381.5,603.725v.772h3.416v-.772a5.126,5.126,0,0,0-5.143-5.143,15.563,15.563,0,0,0-1.922,0A5.171,5.171,0,0,1,381.5,603.725Z" transform="translate(-368.916 -590.863)"/></svg>