<svg xmlns="http://www.w3.org/2000/svg" width="16" height="16" viewBox="0 0 16 16"><defs><style>.a{fill:#7b85a0;}</style></defs><path class="a" d="M684.364,817.951a7.992,7.992,0,0,0-1.621-4.822l.018-.01-.363-.418-.246-.282-.009,0a7.988,7.988,0,0,0-11.557,0l-.009,0-.246.282-.364.418.018.01a7.983,7.983,0,0,0,0,9.644l-.018.01.364.418.246.282.009,0a7.989,7.989,0,0,0,11.557,0l.009,0,.246-.282.363-.418-.018-.01A7.991,7.991,0,0,0,684.364,817.951Zm-10.352-6.687c-.063.078-.124.16-.184.244l-.044.064c-.051.073-.1.148-.149.225l-.054.087q-.077.125-.15.259l-.03.054c-.058.108-.115.219-.17.334l-.038.081c-.042.091-.084.184-.124.28-.015.034-.029.069-.044.1q-.066.16-.127.326l-.02.053-.008.021-.1-.028c-.077-.022-.153-.044-.229-.068l-.139-.044c-.072-.023-.143-.048-.214-.072l-.131-.047c-.075-.028-.149-.056-.222-.086l-.1-.041c-.106-.044-.211-.089-.312-.136A7.091,7.091,0,0,1,674.012,811.264Zm-3.225,2.313c.053.027.109.051.162.077s.095.046.143.068c.18.083.365.162.559.235l.031.011c.185.069.378.134.575.194l.17.051c.054.016.106.033.161.048l0,.009.01,0c-.059.219-.111.445-.158.674-.011.055-.023.11-.033.165-.045.23-.086.464-.12.7,0,.022-.006.045-.009.067-.031.222-.055.447-.076.673,0,.057-.01.114-.015.171-.019.242-.034.486-.042.732,0,.012,0,.024,0,.036h-2.85A7.084,7.084,0,0,1,670.787,813.578Zm.162,8.67c-.054.026-.11.05-.162.076a7.082,7.082,0,0,1-1.5-3.918h2.85c0,.012,0,.025,0,.036.008.246.022.49.042.732,0,.057.01.114.015.171.021.226.045.451.076.673,0,.022.005.045.009.067.034.238.075.471.12.7.011.055.022.11.033.165.048.229.1.455.158.675l-.01,0,0,.009c-.055.015-.107.033-.161.049l-.17.051c-.2.061-.389.125-.575.195l-.031.011c-.194.073-.378.153-.559.236C671.044,822.2,671,822.224,670.949,822.247Zm.471.782c.1-.047.206-.092.312-.136l.106-.043.221-.085.131-.047.213-.072.14-.045c.074-.023.151-.046.227-.067l.1-.028.008.021.02.053q.062.167.127.327l.044.1c.04.1.082.188.124.28l.038.081q.082.172.17.334l.03.053q.074.133.15.259l.054.087c.049.077.1.152.149.225.015.021.029.043.044.064.06.084.122.167.184.245A7.1,7.1,0,0,1,671.42,823.029Zm4.55,1.956h0l-.031-.01c-.051-.015-.1-.033-.151-.053l-.061-.027c-.041-.018-.082-.039-.122-.06l-.063-.035c-.043-.025-.086-.053-.128-.081l-.05-.034q-.087-.062-.173-.134l-.036-.032c-.046-.04-.09-.081-.135-.125-.019-.019-.038-.039-.057-.059-.038-.039-.075-.079-.112-.121l-.058-.068c-.04-.047-.079-.1-.118-.146-.015-.019-.03-.037-.044-.057q-.078-.1-.154-.218l-.039-.062q-.056-.087-.11-.178c-.018-.031-.036-.062-.054-.094q-.047-.082-.093-.169c-.017-.033-.035-.066-.052-.1-.033-.065-.066-.133-.1-.2-.012-.026-.025-.052-.038-.079-.043-.094-.084-.191-.125-.29l-.038-.1q-.029-.076-.058-.152c.054-.01.107-.023.162-.033l.177-.03c.195-.031.392-.059.592-.083l.1-.013c.231-.025.465-.043.7-.057l.187-.009c.092,0,.187,0,.28-.007Zm0-3.838v.006c-.235.006-.469.018-.7.034-.074,0-.146.013-.219.019-.158.014-.316.028-.471.047l-.251.033c-.144.019-.287.041-.429.064l-.254.045c-.053.01-.108.018-.16.029l-.005-.018c-.055-.2-.1-.413-.148-.625-.011-.051-.021-.1-.031-.154-.043-.216-.082-.436-.115-.66,0,0,0-.009,0-.013-.031-.222-.056-.447-.077-.673-.005-.054-.01-.107-.015-.16-.018-.229-.033-.461-.04-.694,0-.007,0-.013,0-.021h2.919Zm0-6.394V817.5h-2.919c0-.007,0-.014,0-.021.007-.233.022-.464.04-.694,0-.053.009-.107.015-.16.02-.227.045-.452.077-.673,0,0,0-.009,0-.014.032-.224.072-.443.115-.66.01-.052.02-.1.031-.154.044-.213.093-.422.148-.625l.005-.018c.053.01.107.018.16.028l.254.045c.142.024.285.045.429.065l.251.033c.156.018.313.033.471.047.073.006.146.014.219.019.231.016.465.029.7.034Zm0-.922c-.1,0-.2,0-.294-.008l-.173-.008c-.236-.014-.469-.032-.7-.058l-.112-.015c-.2-.023-.39-.05-.582-.081l-.183-.031c-.054-.01-.106-.022-.16-.032.019-.051.038-.1.058-.153l.038-.1c.041-.1.083-.2.125-.289l.038-.08c.032-.068.065-.136.1-.2l.052-.1q.046-.086.093-.169c.018-.032.036-.063.054-.094.036-.061.073-.119.11-.177l.039-.063c.05-.076.1-.148.154-.218.014-.02.03-.038.044-.057.039-.05.078-.1.118-.146l.058-.067c.037-.042.074-.082.112-.122.019-.02.038-.04.057-.058.045-.044.09-.086.135-.125l.036-.032c.057-.048.115-.092.173-.134l.05-.034c.043-.029.085-.056.128-.081l.063-.035q.061-.033.122-.06l.061-.027q.076-.03.151-.053l.031-.01h0Zm5.81-.177c.053-.026.11-.05.162-.077a7.084,7.084,0,0,1,1.5,3.918h-2.85c0-.012,0-.024,0-.036-.008-.246-.022-.49-.041-.732,0-.057-.01-.114-.015-.171-.021-.226-.045-.451-.076-.673,0-.022-.005-.045-.008-.067-.034-.237-.075-.471-.12-.7-.011-.055-.022-.11-.034-.165-.048-.229-.1-.455-.158-.674l.01,0,0-.009c.056-.016.109-.033.163-.049l.166-.05c.2-.063.394-.127.582-.2l.025-.009c.194-.073.379-.153.559-.236Zm-.471-.782c-.1.047-.208.093-.314.137l-.093.037c-.078.031-.157.062-.238.092l-.117.042c-.076.027-.152.052-.23.078l-.126.04c-.079.024-.159.048-.239.07l-.092.026-.008-.021-.02-.053c-.041-.111-.084-.22-.127-.326l-.044-.1c-.04-.1-.082-.189-.124-.28l-.038-.081c-.055-.115-.111-.226-.17-.334-.01-.018-.02-.036-.03-.054q-.073-.133-.15-.259l-.054-.087c-.049-.077-.1-.152-.149-.225-.015-.021-.029-.043-.044-.064-.06-.084-.121-.167-.184-.244A7.092,7.092,0,0,1,681.308,812.873Zm-4.428-1.915.055.019.056.023q.073.032.145.072l.033.017c.059.033.117.07.174.11l.047.035c.043.031.086.064.129.1l.055.046c.044.039.088.079.131.122l.038.037c.055.055.109.114.163.176l.041.049q.061.072.12.15l.051.069q.059.079.116.164l.039.058c.05.076.1.154.146.236l.034.06c.037.065.073.13.109.2l.046.089c.034.066.066.133.1.2l.037.08c.043.094.085.19.125.289l.025.064c.023.058.045.118.068.178-.049.01-.1.021-.147.03l-.177.03c-.194.032-.39.06-.588.084l-.086.011c-.222.025-.448.043-.675.057l-.186.011c-.073,0-.148,0-.222.006Zm0,3.794v-.008c.225-.008.449-.021.67-.038.069-.005.137-.013.206-.019.152-.014.3-.029.454-.047l.239-.032q.207-.029.412-.063l.239-.042c.047-.009.1-.016.143-.026l.005.018c.055.2.1.413.148.625.011.052.021.1.031.154.043.216.083.436.115.66a.1.1,0,0,0,0,.014c.031.221.056.447.077.673,0,.053.01.107.014.16.018.229.033.461.04.694,0,.006,0,.014,0,.021h-2.8Zm0,3.654h2.8c0,.007,0,.014,0,.021-.007.233-.022.465-.04.694,0,.054-.009.107-.014.16-.021.227-.045.451-.077.673a.091.091,0,0,0,0,.013c-.032.224-.072.444-.115.66-.01.052-.02.1-.031.154-.045.213-.093.422-.148.625l-.005.018c-.048-.01-.1-.017-.147-.026-.079-.016-.158-.029-.238-.043-.138-.023-.278-.045-.419-.064-.079-.011-.157-.022-.236-.032-.154-.019-.311-.034-.467-.048-.066-.006-.13-.013-.2-.018-.218-.017-.438-.029-.66-.037Zm1.728,4.709-.045.088c-.036.068-.072.134-.109.2l-.034.06c-.048.081-.1.16-.146.236l-.039.058q-.057.085-.116.164l-.051.069q-.059.078-.12.15l-.041.049c-.054.062-.108.121-.163.176l-.038.036c-.043.042-.087.084-.131.122l-.055.047c-.043.035-.086.068-.129.1l-.047.035c-.057.039-.116.077-.174.11l-.033.017c-.048.026-.1.05-.146.072l-.056.023c-.019.008-.037.013-.055.019v-2.869c.074,0,.149,0,.222.007l.186.01c.227.015.452.032.675.058l.086.011q.3.036.588.084l.177.03c.05.009.1.02.147.03-.022.06-.045.12-.068.177-.008.021-.016.043-.025.063-.041.1-.082.2-.125.29l-.037.08C678.675,822.981,678.642,823.049,678.608,823.115Zm.108,1.523c.062-.078.124-.16.184-.245.015-.02.029-.042.044-.064.051-.072.1-.148.149-.225l.054-.087q.077-.126.15-.259c.01-.018.021-.035.03-.053q.088-.162.17-.334l.038-.081c.042-.091.084-.184.124-.28l.044-.1c.043-.107.086-.215.127-.327l.02-.053.008-.021.092.026.239.071.126.04.23.077.117.042c.081.03.16.06.238.092.031.012.062.023.093.037.107.044.213.09.314.137A7.1,7.1,0,0,1,678.716,824.638Zm3.225-2.314c-.052-.027-.108-.051-.162-.076s-.1-.046-.144-.068c-.181-.083-.365-.162-.559-.236l-.025-.009c-.187-.071-.383-.135-.581-.2l-.166-.05c-.055-.016-.107-.034-.163-.049l0-.009-.01,0c.059-.22.11-.446.158-.675.012-.055.023-.109.034-.164.045-.23.086-.464.12-.7,0-.022.005-.045.008-.067.031-.221.055-.447.076-.673.005-.057.01-.114.015-.171.019-.242.034-.486.041-.732,0-.012,0-.023,0-.036h2.85A7.082,7.082,0,0,1,681.941,822.324Z" transform="translate(-668.364 -809.951)"/></svg>