<svg xmlns="http://www.w3.org/2000/svg" xmlns:xlink="http://www.w3.org/1999/xlink" width="140" height="70" viewBox="0 0 140 70"><defs><style>.a{fill:#fff;opacity:0;}.b{fill:#5472e4;}.c{fill:url(#a);}.d{fill:url(#b);}.e{opacity:0.36;fill:url(#c);}.f{fill:#ffb159;}</style><linearGradient id="a" x1="0.242" y1="0.198" x2="0.891" y2="0.958" gradientUnits="objectBoundingBox"><stop offset="0" stop-color="#627de6"/><stop offset="0.389" stop-color="#5472e4"/><stop offset="1" stop-color="#5472e4"/></linearGradient><linearGradient id="b" x1="-2.184" y1="0.5" x2="1.456" y2="0.5" gradientUnits="objectBoundingBox"><stop offset="0" stop-color="#5369c0"/><stop offset="0.301" stop-color="#5472e4"/></linearGradient><linearGradient id="c" x1="-0.248" y1="0.5" x2="1.201" y2="0.5" gradientUnits="objectBoundingBox"><stop offset="0" stop-color="#fff"/><stop offset="1" stop-color="#fff" stop-opacity="0.6"/></linearGradient></defs><rect class="a" width="140" height="70"/><g transform="translate(-87 -78.5)"><path class="b" d="M347.029,181.451v10.86a4.006,4.006,0,0,0-1.926-.6q-2.77,0-2.769,4.236v12.843H332.18v-14.8q0-5.864,3.2-9.354a11.051,11.051,0,0,1,8.554-3.489A21.321,21.321,0,0,1,347.029,181.451Z" transform="translate(-175.623 -73.528)"/><path class="b" d="M406.317,198.716v10.508a13.457,13.457,0,0,1-2.281.218,13.913,13.913,0,0,1-10.182-4.017A14.152,14.152,0,0,1,403.9,181.26q6.57,0,10.358,3.841t3.787,10.494v13.277H407.891V196.33a5.247,5.247,0,0,0-1.044-3.421,3.447,3.447,0,0,0-2.811-1.277,4,4,0,0,0-2.88,6.707,3.6,3.6,0,0,0,2.687,1.087A4.617,4.617,0,0,0,406.317,198.716Z" transform="translate(-216.882 -73.607)"/><path class="b" d="M498.885,222.1v-8.823a9.538,9.538,0,0,0,3.611.868q4.941,0,6.409-5.566a10.206,10.206,0,0,1-5.214,1.575,7.877,7.877,0,0,1-6.219-2.811,10.5,10.5,0,0,1-2.443-7.155V183.16h10.154v14.554q0,2.417,2.009,2.417,1.928,0,1.926-2.661V183.16h10.154v24.166q0,6.762-3.8,10.914a14.352,14.352,0,0,1-10.968,4.942A15.36,15.36,0,0,1,498.885,222.1Z" transform="translate(-292.272 -74.968)"/><path class="c" d="M121.047,124.417a18.472,18.472,0,1,1,8.273-5.5,18.5,18.5,0,0,0,7.311,6.729,28.288,28.288,0,1,0-8.349,6.488A28.513,28.513,0,0,1,121.047,124.417Z" transform="translate(0 0)"/><path class="d" d="M222.586,227.709a18.538,18.538,0,0,1-7.311-6.729,18.446,18.446,0,0,1-8.276,5.5,28.557,28.557,0,0,0,7.234,7.722A28.493,28.493,0,0,0,222.586,227.709Z" transform="translate(-85.956 -102.059)"/><path class="e" d="M222.586,227.709a18.538,18.538,0,0,1-7.311-6.729,18.446,18.446,0,0,1-8.276,5.5,28.557,28.557,0,0,0,7.234,7.722A28.493,28.493,0,0,0,222.586,227.709Z" transform="translate(-85.956 -102.059)"/><path class="f" d="M209.652,200H199.41a28.4,28.4,0,0,0,22.582,22.293v-10.2A18.471,18.471,0,0,1,209.652,200Z" transform="translate(-80.519 -87.031)"/><rect class="f" width="10.213" height="10.213" transform="translate(144.024 125.049)"/></g></svg>