<svg width="16" height="16" viewBox="0 0 16 16" fill="none" xmlns="http://www.w3.org/2000/svg">
<path d="M6.7269 12L7.17004 11.7684C7.08381 11.6034 6.91306 11.5 6.7269 11.5V12ZM7.57087 13.615L7.12774 13.8466V13.8466L7.57087 13.615ZM8.73278 13.6502L9.16107 13.9082V13.9082L8.73278 13.6502ZM9.7269 12V11.5C9.55158 11.5 9.38907 11.5918 9.29861 11.742L9.7269 12ZM2 4H2.5C2.5 3.17157 3.17157 2.5 4 2.5V2V1.5C2.61929 1.5 1.5 2.61929 1.5 4H2ZM2 10H2.5V4H2H1.5V10H2ZM4 12V11.5C3.17157 11.5 2.5 10.8284 2.5 10H2H1.5C1.5 11.3807 2.61929 12.5 4 12.5V12ZM6.7269 12V11.5H4V12V12.5H6.7269V12ZM6.7269 12L6.28376 12.2316L7.12774 13.8466L7.57087 13.615L8.01401 13.3834L7.17004 11.7684L6.7269 12ZM7.57087 13.615L7.12774 13.8466C7.54935 14.6533 8.69134 14.688 9.16107 13.9082L8.73278 13.6502L8.30449 13.3922C8.23738 13.5036 8.07424 13.4987 8.01401 13.3834L7.57087 13.615ZM8.73278 13.6502L9.16107 13.9082L10.1552 12.258L9.7269 12L9.29861 11.742L8.30449 13.3922L8.73278 13.6502ZM12 12V11.5H9.7269V12V12.5H12V12ZM14 10H13.5C13.5 10.8284 12.8284 11.5 12 11.5V12V12.5C13.3807 12.5 14.5 11.3807 14.5 10H14ZM14 4H13.5V10H14H14.5V4H14ZM12 2V2.5C12.8284 2.5 13.5 3.17157 13.5 4H14H14.5C14.5 2.61929 13.3807 1.5 12 1.5V2ZM4 2V2.5H12V2V1.5H4V2Z" fill="#747983"/>
<circle cx="10.6667" cy="7.33335" r="0.666667" fill="#737984"/>
<circle cx="7.99992" cy="7.33335" r="0.666667" fill="#737984"/>
<circle cx="5.33341" cy="7.33335" r="0.666667" fill="#737984"/>
</svg>
