<svg width="16" height="16" viewBox="0 0 16 16" fill="none" xmlns="http://www.w3.org/2000/svg">
<path fill-rule="evenodd" clip-rule="evenodd" d="M9.16308 5.65491C9.14396 6.09769 9.52461 6.46754 10.0015 6.46754C10.0015 6.46754 10.4771 6.46754 10.7148 6.46754C11.0061 6.46754 11.8354 6.46754 12.3588 6.46754C12.3588 6.46754 14.0869 6.46754 13.0905 9.34017C13.0819 9.36601 13.0714 9.39243 13.0603 9.41712L11.5895 12.6745C11.5895 12.6745 11.4359 13.2 10.3069 13.2H5.94759C5.94759 13.2 4.40894 12.9611 4.40894 11.7677V7.32726C4.40894 7.32726 4.2547 6.32454 5.22947 5.75139L7.79409 3.45995C7.79409 3.45995 9.33274 2.55257 9.23033 4.12843L9.16308 5.65491Z" stroke="#111111" stroke-width="0.8" stroke-linejoin="round"/>
<path fill-rule="evenodd" clip-rule="evenodd" d="M3.69513 13.2H3.10436C2.71667 13.2 2.40002 12.8328 2.40002 12.384V7.01543C2.40002 6.56724 2.71667 6.20001 3.10436 6.20001H3.69513C4.08282 6.20001 4.40002 6.56724 4.40002 7.01543V12.384C4.40002 12.8328 4.08282 13.2 3.69513 13.2Z" stroke="#111111" stroke-width="0.8" stroke-linejoin="round"/>
</svg>
