<svg width="16" height="16" viewBox="0 0 16 16" fill="none" xmlns="http://www.w3.org/2000/svg">
<path fill-rule="evenodd" clip-rule="evenodd" d="M10.1631 5.65491C10.144 6.09769 10.5246 6.46754 11.0015 6.46754C11.0015 6.46754 11.4771 6.46754 11.7148 6.46754C12.0061 6.46754 12.8354 6.46754 13.3588 6.46754C13.3588 6.46754 15.0869 6.46754 14.0905 9.34017C14.0819 9.36601 14.0714 9.39243 14.0603 9.41712L12.5895 12.6745C12.5895 12.6745 12.4359 13.2 11.3069 13.2H6.94759C6.94759 13.2 5.40894 12.9611 5.40894 11.7677V7.32726C5.40894 7.32726 5.2547 6.32454 6.22947 5.75139L8.79409 3.45995C8.79409 3.45995 10.3327 2.55257 10.2303 4.12843L10.1631 5.65491Z" fill="black"/>
<path fill-rule="evenodd" clip-rule="evenodd" d="M3.69513 13.2H3.10436C2.71667 13.2 2.40002 12.8328 2.40002 12.384V7.01543C2.40002 6.56724 2.71667 6.20001 3.10436 6.20001H3.69513C4.08282 6.20001 4.40002 6.56724 4.40002 7.01543V12.384C4.40002 12.8328 4.08282 13.2 3.69513 13.2Z" fill="black"/>
</svg>
