<svg xmlns="http://www.w3.org/2000/svg" width="56.803" height="40.377" viewBox="0 0 56.803 40.377"><defs><style>.a{fill:none;stroke:#fff;stroke-linecap:round;stroke-width:3px;}.a,.b{fill-rule:evenodd;}.b{fill:#fff;opacity:0.25;}</style></defs><g transform="translate(-1.908 -9)"><path class="a" d="M7.146,10.5H53.473a3.738,3.738,0,0,1,3.738,3.738v29.9a3.738,3.738,0,0,1-3.738,3.738H7.146a3.738,3.738,0,0,1-3.738-3.738v-29.9A3.738,3.738,0,0,1,7.146,10.5Z" transform="translate(0 0)"/><path class="b" d="M4,33.23,57.574,27V40.7L52.59,44.443,4,43.2Z" transform="translate(0.146 4.057)"/><path class="a" d="M4,16s13.654,7.75,18.689,9.967a17.193,17.193,0,0,0,14.951,0C42.907,23.627,56.328,16,56.328,16" transform="translate(0.146 1.352)"/></g></svg>