<svg xmlns="http://www.w3.org/2000/svg" width="55.849" height="50.797" viewBox="0 0 55.849 50.797"><defs><style>.a,.c{fill:none;stroke:#fff;stroke-width:3px;}.a,.b,.c{fill-rule:evenodd;}.b{fill:#fff;opacity:0.25;}.c{stroke-linecap:round;}</style></defs><g transform="translate(-1.999 -4.038)"><path class="a" d="M7.079,17.406H19.685c2.151,0,4.37,6.119,6.572,6.119H52.586A3.671,3.671,0,0,1,56.257,27.2V47.008a3.671,3.671,0,0,1-3.671,3.671H7.079a3.671,3.671,0,0,1-3.671-3.671V21.077a3.671,3.671,0,0,1,3.671-3.671Z" transform="translate(0.091 2.656)"/><path class="b" d="M4.224,39.567,56.848,31V44.462l-3.671,3.671H6.671L3,44.462Z" transform="translate(0 5.699)"/><path class="a" d="M8.5,20.632V9.3a3.719,3.719,0,0,1,3.671-3.766H46.438A3.719,3.719,0,0,1,50.11,9.3v17.6" transform="translate(1.231)"/><path class="c" d="M10.089,30.5H27" transform="translate(1.587 5.587)"/><path class="c" d="M10.089,36.5H27" transform="translate(1.587 6.93)"/></g></svg>