<svg xmlns="http://www.w3.org/2000/svg" width="50.752" height="60" viewBox="0 0 50.752 60"><defs><style>.a{fill:none;stroke:#fff;stroke-width:3px;}.a,.b{fill-rule:evenodd;}.b{fill:#fff;opacity:0.25;}</style></defs><g transform="translate(-5 -1.927)"><path class="a" d="M18.4,10.308V7.168a3.718,3.718,0,0,1,3.691-3.741h24.63a3.718,3.718,0,0,1,3.691,3.741V40.885a3.718,3.718,0,0,1-3.695,3.741H42.411" transform="translate(3.841 0)"/><path class="a" d="M10.468,13.482H36.924a3.968,3.968,0,0,1,3.968,3.968V53.213a3.968,3.968,0,0,1-3.968,3.968H10.468A3.968,3.968,0,0,1,6.5,53.213V17.45a3.968,3.968,0,0,1,3.968-3.968Z" transform="translate(0 3.246)"/><path class="b" d="M7,38.259,40.069,29V50.164H7Z" transform="translate(0.161 8.254)"/><path class="a" d="M14,23.5H28.551" transform="translate(2.421 6.479)"/><path class="a" d="M14,29.5H28.551" transform="translate(2.421 8.416)"/><path class="a" d="M14,35.5H28.551" transform="translate(2.421 10.352)"/></g></svg>