<svg xmlns="http://www.w3.org/2000/svg" xmlns:xlink="http://www.w3.org/1999/xlink" width="334" height="193.335" viewBox="0 0 334 193.335"><defs><style>.a{fill:url(#a);}.b,.c{fill:#fff;}.b{opacity:0.1;}.c{opacity:0.15;}.d{filter:url(#d);}.e{filter:url(#b);}</style><linearGradient id="a" x1="0.139" y1="-0.054" x2="1.065" y2="0.921" gradientUnits="objectBoundingBox"><stop offset="0" stop-color="#2e1644"/><stop offset="1" stop-color="#17637b"/></linearGradient><filter id="b" x="0" y="0" width="334" height="193" filterUnits="userSpaceOnUse"><feOffset dy="3" input="SourceAlpha"/><feGaussianBlur stdDeviation="3" result="c"/><feFlood flood-opacity="0.161"/><feComposite operator="in" in2="c"/><feComposite in="SourceGraphic"/></filter><filter id="d" x="248.131" y="144.665" width="85.536" height="48.67" filterUnits="userSpaceOnUse"><feOffset dy="3" input="SourceAlpha"/><feGaussianBlur stdDeviation="3" result="e"/><feFlood flood-opacity="0.161"/><feComposite operator="in" in2="e"/><feComposite in="SourceGraphic"/></filter></defs><g transform="translate(9 5.666)"><g class="e" transform="matrix(1, 0, 0, 1, -9, -5.67)"><rect class="a" width="316" height="175" rx="5" transform="translate(9 6)"/></g><g class="d" transform="matrix(1, 0, 0, 1, -9, -5.67)"><path class="b" d="M-6687.869,11799.335a36.507,36.507,0,0,1,36.034-30.67,36.484,36.484,0,0,1,31.5,18.053v7.615a5,5,0,0,1-5,5Z" transform="translate(6945 -11618)"/></g><path class="c" d="M-6663.333,11757.666a40,40,0,0,1,40-40q1.512,0,3,.11v76.559a4.979,4.979,0,0,1-1.239,3.294q-.877.037-1.761.038A40,40,0,0,1-6663.333,11757.666Z" transform="translate(6936 -11622.666)"/></g></svg>