<svg xmlns="http://www.w3.org/2000/svg" xmlns:xlink="http://www.w3.org/1999/xlink" width="681.5" height="199.676" viewBox="0 0 681.5 199.676"><defs><style>.a,.b,.c{fill:none;}.b,.c{stroke:#eee;stroke-linecap:round;}.b{stroke-dasharray:2 3;}.d{clip-path:url(#a);}.e{fill:#878787;font-size:11px;font-family:NotoSansCJKkr-Regular, Noto Sans CJK KR;}.f{fill:#b9d63d;}.g{fill:#6f7e8b;}</style><clipPath id="a"><rect class="a" width="665" height="177"/></clipPath></defs><g transform="translate(-871.5 -826.324)"><line class="b" x1="669.166" transform="translate(872 826.824)"/><line class="b" x1="669.166" transform="translate(872 855.307)"/><line class="b" x1="669.166" transform="translate(872 883.789)"/><line class="b" x1="669.166" transform="translate(872 912.271)"/><line class="b" x1="669.166" transform="translate(872 940.754)"/><line class="b" x1="669.166" transform="translate(872 969.235)"/><line class="c" x1="669.166" transform="translate(872 999.5)"/><g class="d" transform="translate(888 849)"><g transform="translate(4 47)"><text class="e" transform="translate(12 126)"><tspan x="-15.18" y="0">교통비</tspan></text><path class="f" d="M5,0H5a5,5,0,0,1,5,5V90a0,0,0,0,1,0,0H0a0,0,0,0,1,0,0V5A5,5,0,0,1,5,0Z" transform="translate(15 13)"/><path class="g" d="M5,0H5a5,5,0,0,1,5,5V151a0,0,0,0,1,0,0H0a0,0,0,0,1,0,0V5A5,5,0,0,1,5,0Z" transform="translate(0 -47)"/></g><g transform="translate(126 47)"><text class="e" transform="translate(12 126)"><tspan x="-15.18" y="0">접대비</tspan></text><path class="f" d="M5,0H5a5,5,0,0,1,5,5V90a0,0,0,0,1,0,0H0a0,0,0,0,1,0,0V5A5,5,0,0,1,5,0Z" transform="translate(15 13)"/><path class="g" d="M5,0H5a5,5,0,0,1,5,5V151a0,0,0,0,1,0,0H0a0,0,0,0,1,0,0V5A5,5,0,0,1,5,0Z" transform="translate(0 -47)"/></g><g transform="translate(248 47)"><text class="e" transform="translate(12 126)"><tspan x="-20.24" y="0">야근식대</tspan></text><path class="f" d="M5,0H5a5,5,0,0,1,5,5V90a0,0,0,0,1,0,0H0a0,0,0,0,1,0,0V5A5,5,0,0,1,5,0Z" transform="translate(15 13)"/><path class="g" d="M5,0H5a5,5,0,0,1,5,5V151a0,0,0,0,1,0,0H0a0,0,0,0,1,0,0V5A5,5,0,0,1,5,0Z" transform="translate(0 -47)"/></g><g transform="translate(370 47)"><text class="e" transform="translate(12 126)"><tspan x="-15.18" y="0">회식비</tspan></text><path class="f" d="M5,0H5a5,5,0,0,1,5,5V90a0,0,0,0,1,0,0H0a0,0,0,0,1,0,0V5A5,5,0,0,1,5,0Z" transform="translate(15 13)"/><path class="g" d="M5,0H5a5,5,0,0,1,5,5V151a0,0,0,0,1,0,0H0a0,0,0,0,1,0,0V5A5,5,0,0,1,5,0Z" transform="translate(0 -47)"/></g><g transform="translate(492 47)"><text class="e" transform="translate(12 126)"><tspan x="-20.24" y="0">소모품비</tspan></text><path class="f" d="M5,0H5a5,5,0,0,1,5,5V90a0,0,0,0,1,0,0H0a0,0,0,0,1,0,0V5A5,5,0,0,1,5,0Z" transform="translate(15 13)"/><path class="g" d="M5,0H5a5,5,0,0,1,5,5V151a0,0,0,0,1,0,0H0a0,0,0,0,1,0,0V5A5,5,0,0,1,5,0Z" transform="translate(0 -47)"/></g><g transform="translate(614 47)"><text class="e" transform="translate(12 126)"><tspan x="-10.12" y="0">기타</tspan></text><path class="f" d="M5,0H5a5,5,0,0,1,5,5V90a0,0,0,0,1,0,0H0a0,0,0,0,1,0,0V5A5,5,0,0,1,5,0Z" transform="translate(15 13)"/><path class="g" d="M5,0H5a5,5,0,0,1,5,5V151a0,0,0,0,1,0,0H0a0,0,0,0,1,0,0V5A5,5,0,0,1,5,0Z" transform="translate(0 -47)"/></g></g></g></svg>