<svg xmlns="http://www.w3.org/2000/svg" xmlns:xlink="http://www.w3.org/1999/xlink" width="709.088" height="239" viewBox="0 0 709.088 239"><defs><style>.a,.b,.c,.d,.f,.h{fill:none;}.b,.f{stroke:#ddd;}.c,.d{stroke:#eee;}.c,.d,.f,.h{stroke-linecap:round;}.c{stroke-dasharray:2 3;}.e{fill:#ddd;opacity:0.3;}.f,.h{stroke-width:2px;}.g{fill:#e14b8d;opacity:0.5;}.h{stroke:#e14b8d;}.i{clip-path:url(#a);}.j,.l{fill:#878787;font-size:11px;}.j{font-family:NanumSquareRoundB, NanumSquareRound;}.k,.l{font-family:NotoSansCJKkr-Regular, Noto Sans CJK KR;}</style><clipPath id="a"><rect class="a" width="673" height="17"/></clipPath></defs><g transform="translate(-851.5 -785)"><line class="b" x2="709.088" transform="translate(851.5 785.5)"/><line class="c" x1="668.588" transform="translate(872 827.176)"/><line class="c" x1="668.588" transform="translate(872 855.756)"/><line class="c" x1="668.588" transform="translate(872 884.336)"/><line class="c" x1="668.588" transform="translate(872 912.917)"/><line class="c" x1="668.588" transform="translate(872 941.497)"/><line class="c" x1="668.588" transform="translate(872 970.078)"/><line class="d" x1="668.588" transform="translate(872 999.5)"/><path class="e" d="M44.416,226.652c7.507,2.412,9.144,9.647,30.028,9.647s59.286-88.1,101.6-88.1S238.618,271.679,276,271.679s62.831-64.825,102.425-64.825,46.033-40.13,91.73-40.13,52.209,28.075,98.723,28.257,81.755,55.674,111.475,55.565,33.73-42.267,33.73-42.267V308.391H44.416Z" transform="translate(826.502 691)"/><path class="f" d="M44.416,226.652s9.147,9.647,30.036,9.647,59.3-88.1,101.627-88.1,62.587,123.477,99.981,123.477,62.847-64.825,102.45-64.825,46.044-40.13,91.753-40.13,52.222,28.075,98.747,28.257,81.775,55.674,111.5,55.565,33.739-42.267,33.739-42.267" transform="translate(826.502 691)"/><path class="g" d="M44.416,226.652s6.189,20.64,27.127,20.64S137.295,191.4,179.72,191.4,239,222.816,276.477,222.816s66.9-63.2,106.591-63.2,49.99,38.541,95.805,38.541,48.22,28.312,94.853,28.495c8,.031,23.012-3.675,23.012-3.675L622.354,210.4s7.052-3.915,9.768-5.712c18.222-12.055,34.282-24.815,49.806-24.872,29.8-.109,32.158-10.8,32.158-10.8V285.487H44.416Z" transform="translate(826.502 714)"/><path class="h" d="M44.416,226.652s6.191,20.641,27.133,20.641,65.768-55.894,108.2-55.894,59.29,31.417,96.781,31.417,66.912-63.2,106.617-63.2,50,38.541,95.829,38.541,48.232,28.312,94.877,28.495,78.424-46.725,108.228-46.834,32.166-10.8,32.166-10.8" transform="translate(826.502 714)"/><g class="i" transform="translate(869.918 1007)"><g transform="translate(-824 -502)"><g transform="translate(825 502)"><text class="j" transform="translate(8 13)"><tspan x="-8.415" y="0">1</tspan><tspan class="k" y="0">월</tspan></text></g></g><g transform="translate(-765 -502)"><g transform="translate(825 502)"><text class="l" transform="translate(8 13)"><tspan x="-8.113" y="0">2월</tspan></text></g></g><g transform="translate(-706 -502)"><g transform="translate(825 502)"><text class="l" transform="translate(8 13)"><tspan x="-8.113" y="0">3월</tspan></text></g></g><g transform="translate(-647 -502)"><g transform="translate(825 502)"><text class="l" transform="translate(8 13)"><tspan x="-8.113" y="0">4월</tspan></text></g></g><g transform="translate(-588 -502)"><g transform="translate(825 502)"><text class="l" transform="translate(8 13)"><tspan x="-8.113" y="0">5월</tspan></text></g></g><g transform="translate(-529 -502)"><g transform="translate(825 502)"><text class="l" transform="translate(8 13)"><tspan x="-8.113" y="0">6월</tspan></text></g></g><g transform="translate(-470 -502)"><g transform="translate(825 502)"><text class="l" transform="translate(8 13)"><tspan x="-8.113" y="0">7월</tspan></text></g></g><g transform="translate(-411 -502)"><g transform="translate(825 502)"><text class="l" transform="translate(8 13)"><tspan x="-8.113" y="0">8월</tspan></text></g></g><g transform="translate(-352 -502)"><g transform="translate(825 502)"><text class="l" transform="translate(8 13)"><tspan x="-8.113" y="0">9월</tspan></text></g></g><g transform="translate(-293 -502)"><g transform="translate(825 502)"><text class="l" transform="translate(8 13)"><tspan x="-11.165" y="0">10월</tspan></text></g></g><g transform="translate(-234 -502)"><g transform="translate(825 502)"><text class="l" transform="translate(8 13)"><tspan x="-11.165" y="0">11월</tspan></text></g></g><g transform="translate(-175 -502)"><g transform="translate(825 502)"><text class="l" transform="translate(8 13)"><tspan x="-11.165" y="0">12월</tspan></text></g></g></g></g></svg>