<svg xmlns="http://www.w3.org/2000/svg" width="15" height="15" viewBox="0 0 15 15"><defs><style>.a{fill:#5e71b8;}</style></defs><path class="a" d="M9.435,11.25H8.826a.309.309,0,0,0-.3.313V13.75h-7.3V1.25h7.3V3.438a.309.309,0,0,0,.3.313h.609a.309.309,0,0,0,.3-.313V1.25A1.234,1.234,0,0,0,8.522,0h-7.3A1.234,1.234,0,0,0,0,1.25v12.5A1.234,1.234,0,0,0,1.217,15h7.3a1.234,1.234,0,0,0,1.217-1.25V11.562A.309.309,0,0,0,9.435,11.25Z"/><path class="a" d="M138.858,131.605l-3.652-3.527a.292.292,0,0,0-.328-.057.321.321,0,0,0-.182.293v.641a.328.328,0,0,0,.1.238l2.116,2.006H128.3a.313.313,0,0,0-.3.321v.641a.313.313,0,0,0,.3.321h8.608l-2.116,2.006a.328.328,0,0,0-.1.238v.641a.321.321,0,0,0,.182.293.287.287,0,0,0,.122.027.3.3,0,0,0,.206-.084l3.652-3.527a.333.333,0,0,0,0-.473Z" transform="translate(-123.957 -124.342)"/></svg>