<svg xmlns="http://www.w3.org/2000/svg" width="16" height="16" viewBox="0 0 16 16"><defs><style>.a{fill:rgba(255,255,255,0);}.b{fill:#333;}</style></defs><rect class="a" width="16" height="16"/><g transform="translate(1 1)"><g transform="translate(0 1.368)"><path class="b" d="M19.162,49.349H7.024a.856.856,0,0,0-.855.855V61.316a.856.856,0,0,0,.855.855H19.162a.856.856,0,0,0,.855-.855V50.2A.856.856,0,0,0,19.162,49.349Zm-.171,11.8H7.195V50.375h11.8v10.77Z" transform="translate(-6.169 -49.349)"/></g><g transform="translate(0.513 4.787)"><rect class="b" width="12.822" height="1.026"/></g><g transform="translate(3.077)"><path class="b" d="M117.718,0a.513.513,0,0,0-.513.513V3.248a.513.513,0,0,0,1.026,0V.513A.513.513,0,0,0,117.718,0Z" transform="translate(-117.205)"/></g><g transform="translate(9.916)"><path class="b" d="M364.465,0a.513.513,0,0,0-.513.513V3.248a.513.513,0,1,0,1.026,0V.513A.513.513,0,0,0,364.465,0Z" transform="translate(-363.952)"/></g><g transform="translate(4.616 10.257)"><path class="b" d="M177,370.12h-3.761a.513.513,0,1,0,0,1.026H177a.513.513,0,0,0,0-1.026Z" transform="translate(-172.723 -370.12)"/></g><g transform="translate(4.616 7.864)"><path class="b" d="M177,283.759h-3.761a.513.513,0,1,0,0,1.026H177a.513.513,0,0,0,0-1.026Z" transform="translate(-172.723 -283.759)"/></g></g></svg>