<svg xmlns="http://www.w3.org/2000/svg" width="13.013" height="14.046" viewBox="0 0 13.013 14.046"><defs><style>.a{fill:#5874df;}</style></defs><path class="a" d="M46.211,0l-1.5.924L43.208,0l-1.5.924L40.205,0,38.7.924,37.2,0l-2,1.231V12.815l2,1.231,1.5-.924,1.5.924,1.5-.924,1.5.924,1.5-.924,1.5.924,2-1.231V1.231Zm1,12.32-1,.617-1.5-.924-1.5.924-1.5-.924-1.5.924-1.5-.924-1.5.924-1-.617V1.726l1-.617,1.5.924,1.5-.924,1.5.924,1.5-.924,1.5.924,1.5-.924,1,.617Z" transform="translate(-35.2)"/><rect class="a" width="7.469" height="0.924" transform="translate(2.772 3.789)"/><rect class="a" width="7.469" height="0.924" transform="translate(2.772 5.637)"/><rect class="a" width="7.469" height="0.924" transform="translate(2.772 7.485)"/><rect class="a" width="2.772" height="0.924" transform="translate(3.072 9.333)"/><rect class="a" width="0.924" height="0.924" transform="translate(9.067 9.333)"/><rect class="a" width="0.924" height="0.924" transform="translate(7.052 9.333)"/></svg>