<svg xmlns="http://www.w3.org/2000/svg" width="28" height="28" viewBox="0 0 28 28"><defs><style>.a{fill:red;opacity:0;}.b{fill:#b4b4b4;}</style></defs><rect class="a" width="28" height="28"/><g transform="translate(1.001 2)"><path class="b" d="M5.326,4.142H7.148a1.524,1.524,0,0,0,0-3.048h-5.5l-.014,0a1.53,1.53,0,0,0-.284.028c-.046.009-.088.026-.133.04a1.458,1.458,0,0,0-.152.047,1.509,1.509,0,0,0-.145.076C.88,1.308.84,1.326.8,1.351a1.491,1.491,0,0,0-.228.186l0,0-.008.01c-.017.018-.031.039-.048.058A1.515,1.515,0,0,0,0,2.742v5.5a1.524,1.524,0,0,0,3.048,0V6.174l5.142,5.141A1.524,1.524,0,0,0,10.346,9.16Z" transform="translate(10.793 11.762) rotate(180)"/><path class="b" d="M8.191,33.691,3.048,38.834V36.766a1.524,1.524,0,1,0-3.048,0v5.5A1.513,1.513,0,0,0,.514,43.4a1.529,1.529,0,0,0,.289.258c.036.024.075.041.113.061a1.489,1.489,0,0,0,.149.078c.05.021.1.032.152.048s.086.03.132.039a1.515,1.515,0,0,0,.3.03h5.5a1.524,1.524,0,0,0,0-3.048H5.325l5.02-5.02a1.524,1.524,0,1,0-2.155-2.155Z" transform="translate(10.792 58.245) rotate(180)"/><path class="b" d="M43.364,35.242a1.524,1.524,0,0,0-1.524,1.524v2.068L36.7,33.691a1.524,1.524,0,1,0-2.155,2.155l5.02,5.02H37.74a1.524,1.524,0,1,0,0,3.048h5.5a1.512,1.512,0,0,0,.3-.03,1.4,1.4,0,0,0,.136-.04,1.518,1.518,0,0,0,.148-.046,1.586,1.586,0,0,0,.156-.082c.035-.02.072-.035.106-.057a1.985,1.985,0,0,0,.8-1.391v-5.5A1.524,1.524,0,0,0,43.364,35.242Z" transform="translate(60.207 58.245) rotate(180)"/><path class="b" d="M35.5,11.763a1.518,1.518,0,0,0,1.077-.446l5.143-5.143V8.242a1.524,1.524,0,1,0,3.048,0V2.74a1.514,1.514,0,0,0-.514-1.133,1.526,1.526,0,0,0-.288-.258c-.035-.023-.073-.039-.109-.059a1.519,1.519,0,0,0-.153-.081,1.438,1.438,0,0,0-.151-.047c-.044-.013-.087-.03-.134-.04a1.507,1.507,0,0,0-.3-.03h-5.5a1.524,1.524,0,0,0,0,3.048H39.44l-5.02,5.02a1.525,1.525,0,0,0,1.078,2.6Z" transform="translate(60.023 11.763) rotate(180)"/></g></svg>