<svg xmlns="http://www.w3.org/2000/svg" width="43.23" height="27.122" viewBox="0 0 43.23 27.122"><defs><style>.a,.b{fill:none;stroke:#fff;stroke-width:3px;}.a,.c{fill-rule:evenodd;}.c{fill:#fff;opacity:0.25;}</style></defs><g transform="translate(-1572.499 -855.203)"><g transform="translate(1576.326 850.991)"><path class="a" d="M5.673,39.673a12,12,0,0,1,24,0" transform="translate(0 -8.339)"/><circle class="b" cx="6.209" cy="6.209" r="6.209" transform="translate(11.464 5.712)"/><path class="c" d="M16.089,15.481a6.226,6.226,0,1,1,11.321-3.565" transform="translate(-3.52)"/></g><g transform="translate(1596.326 855.574)"><path class="a" d="M5.673,33.788a6.115,6.115,0,1,1,12.23,0" transform="translate(0 -15.037)"/><circle class="b" cx="3.164" cy="3.164" r="3.164" transform="translate(8.624 5.694)"/><path class="c" d="M15.534,10.672A3.173,3.173,0,1,1,21.3,8.856" transform="translate(-6.347)"/></g><g transform="translate(1568.326 855.574)"><path class="a" d="M5.673,33.788a6.115,6.115,0,1,1,12.23,0" transform="translate(0 -15.037)"/><circle class="b" cx="3.164" cy="3.164" r="3.164" transform="translate(8.624 5.694)"/><path class="c" d="M15.534,10.672A3.173,3.173,0,1,1,21.3,8.856" transform="translate(-6.347)"/></g></g></svg>