<svg xmlns="http://www.w3.org/2000/svg" width="40" height="32.055" viewBox="0 0 40 32.055"><defs><style>.a{fill:#cbd4fb;}.b,.c{stroke:none;}.c{fill:#5874df;}</style></defs><g class="a"><path class="b" d="M 35.00009918212891 31.05530166625977 L 5.000399589538574 31.05530166625977 C 2.794569730758667 31.05530166625977 0.9999997019767761 29.2607307434082 0.9999997019767761 27.05490112304688 L 0.9999997019767761 9.054901123046875 L 0.9999997019767761 2.555100679397583 C 0.9999997019767761 1.727890849113464 1.716589689254761 1.054900765419006 2.597399711608887 1.054900765419006 L 17.18230056762695 1.054900765419006 L 17.2559700012207 1.054900765419006 L 17.32884979248047 1.044100761413574 C 17.52434921264648 1.015140771865845 17.72385025024414 1.000450849533081 17.92178916931152 1.000450849533081 C 19.13434028625488 1.000450849533081 20.26753044128418 1.540960788726807 21.03079986572266 2.483380794525146 L 22.81336975097656 4.68471097946167 L 23.11354064941406 5.055400848388672 L 23.59051895141602 5.055400848388672 L 35.00009918212891 5.055400848388672 C 37.20542907714844 5.055400848388672 38.99959945678711 6.849570751190186 38.99959945678711 9.054901123046875 L 38.99959945678711 27.05490112304688 C 38.99959945678711 29.2607307434082 37.20542907714844 31.05530166625977 35.00009918212891 31.05530166625977 Z"/><path class="c" d="M 35.00009918212891 30.05530166625977 C 36.65402984619141 30.05530166625977 37.99959945678711 28.70933151245117 37.99959945678711 27.05490112304688 L 37.99959945678711 9.054901123046875 C 37.99959945678711 7.400970935821533 36.65402984619141 6.055400848388672 35.00009918212891 6.055400848388672 L 23.59051895141602 6.055400848388672 L 22.63656044006348 6.055400848388672 L 22.03620910644531 5.31402063369751 L 20.25370025634766 3.112760782241821 C 19.68119049072266 2.405870676040649 18.83123970031738 2.000450849533081 17.92178916931152 2.000450849533081 C 17.77276992797852 2.000450849533081 17.6225700378418 2.011510848999023 17.4753589630127 2.033310890197754 L 17.32962036132813 2.054900884628296 L 17.18230056762695 2.054900884628296 L 2.597399711608887 2.054900884628296 C 2.273579835891724 2.054900884628296 1.999999761581421 2.283960819244385 1.999999761581421 2.555100679397583 L 1.999999761581421 9.054901123046875 L 1.999999761581421 27.05490112304688 C 1.999999761581421 28.70933151245117 3.345969676971436 30.05530166625977 5.000399589538574 30.05530166625977 L 35.00009918212891 30.05530166625977 M 35.00009918212891 32.05530166625977 L 5.000399589538574 32.05530166625977 C 2.23829984664917 32.05530166625977 -2.716064386731887e-07 29.81610107421875 -2.716064386731887e-07 27.05490112304688 L -2.716064386731887e-07 9.054901123046875 L -2.716064386731887e-07 2.555100679397583 C -2.716064386731887e-07 1.174500823020935 1.162799715995789 0.05490079149603844 2.597399711608887 0.05490079149603844 L 17.18230056762695 0.05490079149603844 C 17.42729377746582 0.01860637217760086 17.6745662689209 0.0004553613252937794 17.92179298400879 0.0004553613252937794 C 19.36440467834473 0.0004553613252937794 20.80709075927734 0.6182889342308044 21.80789947509766 1.854000806808472 L 23.59051895141602 4.055400848388672 L 35.00009918212891 4.055400848388672 C 37.76129913330078 4.055400848388672 39.99959945678711 6.293700695037842 39.99959945678711 9.054901123046875 L 39.99959945678711 27.05490112304688 C 39.99959945678711 29.81610107421875 37.76129913330078 32.05530166625977 35.00009918212891 32.05530166625977 Z"/></g></svg>