<svg xmlns="http://www.w3.org/2000/svg" width="70" height="70" viewBox="0 0 70 70"><defs><style>.a{fill:#a4b0de;opacity:0.3;}.b{fill:#728ae5;}</style></defs><circle class="a" cx="35" cy="35" r="35"/><g transform="translate(17.948 17.948)"><path class="b" d="M252.42,0l-1.154,1.154a8.533,8.533,0,0,0-1.6,2.217l-1.22,2.439,10.96,10.96,2.439-1.22a8.536,8.536,0,0,0,2.217-1.6l1.154-1.154L252.42,0Z" transform="translate(-231.114)"/><path class="b" d="M14.213,124.473A11.555,11.555,0,0,1,6.4,126.442L0,149.906l23.464-6.4a11.555,11.555,0,0,1,1.969-7.814l-11.22-11.22Zm-2.481,16.9a3.2,3.2,0,1,1,3.2-3.2,3.2,3.2,0,0,1-3.2,3.2Z" transform="translate(0 -115.801)"/></g></svg>