<svg xmlns="http://www.w3.org/2000/svg" xmlns:xlink="http://www.w3.org/1999/xlink" width="758.5" height="147" viewBox="0 0 758.5 147"><defs><style>.a,.b,.c{fill:none;}.b,.c{stroke:#ddd;stroke-linecap:round;}.b{stroke-dasharray:2 3;}.d{clip-path:url(#a);}.e{fill:#878787;font-size:11px;font-family:NotoSansCJKkr-Regular, Noto Sans CJK KR;}.f{fill:#51b1e8;}.g{fill:#865fc0;}.h{fill:#fa9a44;}</style><clipPath id="a"><rect class="a" width="738" height="130"/></clipPath></defs><g transform="translate(-871.5 -806)"><line class="b" x1="753" transform="translate(872 806.5)"/><line class="b" x1="753" transform="translate(872 826.5)"/><line class="b" x1="753" transform="translate(872 846.5)"/><line class="b" x1="753" transform="translate(872 866.5)"/><line class="b" x1="753" transform="translate(872 886.5)"/><line class="b" x1="753" transform="translate(872 906.5)"/><line class="c" x1="753" transform="translate(872 926.5)"/><g class="d" transform="translate(892 823)"><text class="e" transform="translate(20 126)"><tspan x="-8.113" y="0">1월</tspan></text><rect class="f" width="10" height="70" transform="translate(15 34)"/><rect class="g" width="10" height="104"/><rect class="h" width="10" height="60" transform="translate(30 44)"/><g transform="translate(112)"><text class="e" transform="translate(20 126)"><tspan x="-8.113" y="0">2월</tspan></text><rect class="f" width="10" height="70" transform="translate(15 34)"/><rect class="g" width="10" height="104"/><rect class="h" width="10" height="60" transform="translate(30 44)"/></g><g transform="translate(224)"><text class="e" transform="translate(20 126)"><tspan x="-8.113" y="0">3월</tspan></text><rect class="f" width="10" height="70" transform="translate(15 34)"/><rect class="g" width="10" height="104"/><rect class="h" width="10" height="60" transform="translate(30 44)"/></g><g transform="translate(336)"><text class="e" transform="translate(20 126)"><tspan x="-8.113" y="0">4월</tspan></text><rect class="f" width="10" height="70" transform="translate(15 34)"/><rect class="g" width="10" height="104"/><rect class="h" width="10" height="60" transform="translate(30 44)"/></g><g transform="translate(448)"><text class="e" transform="translate(20 126)"><tspan x="-8.113" y="0">5월</tspan></text><rect class="f" width="10" height="70" transform="translate(15 34)"/><rect class="g" width="10" height="104"/><rect class="h" width="10" height="60" transform="translate(30 44)"/></g><g transform="translate(560)"><text class="e" transform="translate(20 126)"><tspan x="-8.113" y="0">6월</tspan></text><rect class="f" width="10" height="70" transform="translate(15 34)"/><rect class="g" width="10" height="104"/><rect class="h" width="10" height="60" transform="translate(30 44)"/></g><g transform="translate(672)"><text class="e" transform="translate(20 126)"><tspan x="-8.113" y="0">7월</tspan></text><rect class="f" width="10" height="70" transform="translate(15 34)"/><rect class="g" width="10" height="104"/><rect class="h" width="10" height="60" transform="translate(30 44)"/></g></g></g></svg>