<svg xmlns="http://www.w3.org/2000/svg" width="50.424" height="34.667" viewBox="0 0 50.424 34.667"><defs><style>.a{fill:#fff;}</style></defs><g transform="translate(0 -80)"><path class="a" d="M50.424,88.257V85.571A5.543,5.543,0,0,0,44.909,80H5.515A5.543,5.543,0,0,0,0,85.571v2.686a.5.5,0,0,0,.492.5H49.932A.5.5,0,0,0,50.424,88.257Z" transform="translate(0 0)"/><path class="a" d="M0,200.5v17.011a5.543,5.543,0,0,0,5.515,5.571H44.909a5.543,5.543,0,0,0,5.515-5.571V200.5a.5.5,0,0,0-.492-.5H.492A.5.5,0,0,0,0,200.5Zm12.606,13.032a1.584,1.584,0,0,1-1.576,1.592H9.455a1.584,1.584,0,0,1-1.576-1.592v-1.592a1.584,1.584,0,0,1,1.576-1.592H11.03a1.584,1.584,0,0,1,1.576,1.592Z" transform="translate(0 -108.413)"/></g></svg>