<svg xmlns="http://www.w3.org/2000/svg" width="50" height="43.125" viewBox="0 0 50 43.125"><defs><style>.a{fill:#fff;}</style></defs><g transform="translate(0 -35.199)"><g transform="translate(11.845 47.93)"><path class="a" d="M124.4,162.724a5.286,5.286,0,1,0,5.286,5.285A5.291,5.291,0,0,0,124.4,162.724Z" transform="translate(-119.116 -162.724)"/></g><g transform="translate(0 35.199)"><path class="a" d="M48.205,35.2H1.794A1.813,1.813,0,0,0,0,37.03V66.382a1.813,1.813,0,0,0,1.794,1.831h.851L10.66,60.03a.569.569,0,0,0,.038-.754,8.827,8.827,0,0,1-1.99-5.908,8.684,8.684,0,0,1,8.4-8.444,8.752,8.752,0,0,1,.433,17.492,8.374,8.374,0,0,1-3.8-.778.539.539,0,0,0-.615.112L6.787,68.214H48.205A1.815,1.815,0,0,0,50,66.382V37.031A1.816,1.816,0,0,0,48.205,35.2ZM31.076,61.161a1.465,1.465,0,1,1-2.929,0V55.39a1.465,1.465,0,1,1,2.929,0Zm4.589,0a1.465,1.465,0,1,1-2.929,0V45.422a1.465,1.465,0,1,1,2.929,0Zm4.665,0a1.465,1.465,0,1,1-2.929,0V49.409a1.465,1.465,0,1,1,2.929,0Zm4.668,0a1.465,1.465,0,1,1-2.929,0V53.4A1.465,1.465,0,1,1,45,53.4Z" transform="translate(0 -35.199)"/></g><g transform="translate(13.196 70.654)"><path class="a" d="M149.794,398.022l-.009,0a27.724,27.724,0,0,0-6.609-1.91v-2.6a.513.513,0,0,0-.513-.513h-7.716a.513.513,0,0,0-.513.513v2.608a27.715,27.715,0,0,0-6.573,1.9,1.4,1.4,0,0,0-.776,1.76,1.373,1.373,0,0,0,1.826.776,24.952,24.952,0,0,1,9.9-2.038h.029a24.994,24.994,0,0,1,9.867,2.03l.017.007a1.372,1.372,0,1,0,1.074-2.526Z" transform="translate(-126.999 -392.989)"/></g><g transform="translate(0.016 68.213)"><path class="a" d="M2.642,366.324l-2.06,2.064a1.372,1.372,0,0,0,1.941,1.941l4-4.005Z" transform="translate(-0.18 -366.324)"/></g></g></svg>