<svg xmlns="http://www.w3.org/2000/svg" width="46.413" height="46.444" viewBox="0 0 46.413 46.444"><defs><style>.a{fill:#fff;}</style></defs><g transform="translate(-20.554 -19.556)"><g transform="translate(20.554 19.556)"><g transform="translate(2.004 29.87)"><g transform="translate(0)"><path class="a" d="M49.188,327.948l-5.813,4.72-5.417-4.4L22.172,344.522h42.39Z" transform="translate(-22.172 -327.948)"/></g></g><g transform="translate(31.136 15.748)"><path class="a" d="M342.013,185.309l15.278,16.47V172.905Z" transform="translate(-342.013 -172.905)"/></g><g transform="translate(0 15.748)"><g transform="translate(0)"><path class="a" d="M.169,172.905v28.856l15.67-16.133Z" transform="translate(-0.169 -172.905)"/></g></g><g transform="translate(1.84 13.739)"><path class="a" d="M49.09,150.846V160.1h-14.7v-9.253H20.372l21.367,17.348,21.367-17.348Z" transform="translate(-20.372 -150.846)"/></g><g transform="translate(15.251)"><path class="a" d="M179.719,5.589,175.569,0l-4.15,5.589-3.806,5.3h3.324v9.384H180.2V10.888h3.324Z" transform="translate(-167.613)"/></g></g></g></svg>