<svg xmlns="http://www.w3.org/2000/svg" width="18" height="20" viewBox="0 0 18 20"><defs><style>.a{fill:#fff;}</style></defs><path class="a" d="M2.929,18.125H17.071V16.4l-.773-.75-1.363-1.326L16.3,13l.773-.75V1.875H2.929V12.249L3.7,13l1.363,1.326L3.7,15.651l-.773.75v1.724M1,18.75V15.625l1.337-1.3L1,13.025V1.25A1.272,1.272,0,0,1,2.286,0H17.714A1.272,1.272,0,0,1,19,1.25V13.025l-1.337,1.3L19,15.625V18.75A1.272,1.272,0,0,1,17.714,20H2.286A1.272,1.272,0,0,1,1,18.75Z" transform="translate(-1)"/><path class="a" d="M2.929,18.125H17.071V16.4l-.773-.75-1.363-1.326L16.3,13l.773-.75V1.875H2.929V12.249L3.7,13l1.363,1.326L3.7,15.651l-.773.75v1.724M1,18.75V15.625l1.337-1.3L1,13.025V1.25A1.272,1.272,0,0,1,2.286,0H17.714A1.272,1.272,0,0,1,19,1.25V13.025l-1.337,1.3L19,15.625V18.75A1.272,1.272,0,0,1,17.714,20H2.286A1.272,1.272,0,0,1,1,18.75Z" transform="translate(-1)"/><g transform="translate(5.758 13.571)"><circle class="a" cx="0.75" cy="0.75" r="0.75"/><circle class="a" cx="0.75" cy="0.75" r="0.75" transform="translate(2.492)"/><circle class="a" cx="0.75" cy="0.75" r="0.75" transform="translate(4.984)"/></g><rect class="a" width="12.455" height="1.5" rx="0.75" transform="translate(2.773 3.739)"/><rect class="a" width="6.455" height="1.5" rx="0.75" transform="translate(4.243 7.336)"/></svg>