<svg xmlns="http://www.w3.org/2000/svg" width="20" height="18" viewBox="0 0 20 18"><defs><style>.a{fill:#fff;}</style></defs><g transform="translate(0 0)"><path class="a" d="M19.454,3.7,15.091,1.591a.893.893,0,0,0-.764-.012L10.014,3.515,6.031,1.591a.9.9,0,0,0-.765-.012L.569,3.687a.775.775,0,0,0-.084.06A.894.894,0,0,0,.271,3.9a1.007,1.007,0,0,0-.106.163.94.94,0,0,0-.093.152.994.994,0,0,0-.06.31c0,.022-.013.041-.013.063V18.518a.978.978,0,0,0,.04.2,1.079,1.079,0,0,0,.035.181v0a.965.965,0,0,0,.183.282c.02.023.044.04.066.062a.975.975,0,0,0,.2.14.8.8,0,0,0,.089.042A.89.89,0,0,0,.94,19.5a.907.907,0,0,0,.368-.078h0l4.313-1.934,3.984,1.923.014,0c.017.008.036.012.055.018A.883.883,0,0,0,10,19.5c.013,0,.024-.008.036-.008a.7.7,0,0,0,.113-.024.934.934,0,0,0,.219-.046h0l4.313-1.934,3.982,1.923a.908.908,0,0,0,.9-.064A1,1,0,0,0,20,18.516V4.591A.987.987,0,0,0,19.454,3.7ZM1.879,5.239,5.011,3.834V15.622l-3.133,1.4ZM6.264,3.87l2.8,1.35V16.98l-2.8-1.35ZM10.94,5.239l3.131-1.405V15.622l-3.131,1.4ZM18.121,16.98l-2.8-1.35V3.87l2.8,1.35Z" transform="translate(0 -1.5)"/></g></svg>